%TF.GenerationSoftware,KiCad,Pcbnew,8.0.9-8.0.9-0~ubuntu20.04.1*%
%TF.CreationDate,2025-06-12T23:45:12+01:00*%
%TF.ProjectId,nfc-pcb-tag,6e66632d-7063-4622-9d74-61672e6b6963,rev?*%
%TF.SameCoordinates,Original*%
%TF.FileFunction,AssemblyDrawing,Bot*%
%FSLAX46Y46*%
G04 Gerber Fmt 4.6, Leading zero omitted, Abs format (unit mm)*
G04 Created by KiCad (PCBNEW 8.0.9-8.0.9-0~ubuntu20.04.1) date 2025-06-12 23:45:12*
%MOMM*%
%LPD*%
G01*
G04 APERTURE LIST*
%ADD10C,0.040000*%
%ADD11C,0.254000*%
%ADD12C,0.150000*%
%ADD13C,0.110000*%
%ADD14C,0.060000*%
%ADD15C,0.100000*%
G04 APERTURE END LIST*
D10*
X69793332Y-32368200D02*
X69879999Y-32244391D01*
X69941904Y-32368200D02*
X69941904Y-32108200D01*
X69941904Y-32108200D02*
X69842856Y-32108200D01*
X69842856Y-32108200D02*
X69818094Y-32120581D01*
X69818094Y-32120581D02*
X69805713Y-32132962D01*
X69805713Y-32132962D02*
X69793332Y-32157724D01*
X69793332Y-32157724D02*
X69793332Y-32194867D01*
X69793332Y-32194867D02*
X69805713Y-32219629D01*
X69805713Y-32219629D02*
X69818094Y-32232010D01*
X69818094Y-32232010D02*
X69842856Y-32244391D01*
X69842856Y-32244391D02*
X69941904Y-32244391D01*
X69570475Y-32194867D02*
X69570475Y-32368200D01*
X69632380Y-32095820D02*
X69694285Y-32281534D01*
X69694285Y-32281534D02*
X69533332Y-32281534D01*
X80793332Y-38618200D02*
X80879999Y-38494391D01*
X80941904Y-38618200D02*
X80941904Y-38358200D01*
X80941904Y-38358200D02*
X80842856Y-38358200D01*
X80842856Y-38358200D02*
X80818094Y-38370581D01*
X80818094Y-38370581D02*
X80805713Y-38382962D01*
X80805713Y-38382962D02*
X80793332Y-38407724D01*
X80793332Y-38407724D02*
X80793332Y-38444867D01*
X80793332Y-38444867D02*
X80805713Y-38469629D01*
X80805713Y-38469629D02*
X80818094Y-38482010D01*
X80818094Y-38482010D02*
X80842856Y-38494391D01*
X80842856Y-38494391D02*
X80941904Y-38494391D01*
X80694285Y-38382962D02*
X80681904Y-38370581D01*
X80681904Y-38370581D02*
X80657142Y-38358200D01*
X80657142Y-38358200D02*
X80595237Y-38358200D01*
X80595237Y-38358200D02*
X80570475Y-38370581D01*
X80570475Y-38370581D02*
X80558094Y-38382962D01*
X80558094Y-38382962D02*
X80545713Y-38407724D01*
X80545713Y-38407724D02*
X80545713Y-38432486D01*
X80545713Y-38432486D02*
X80558094Y-38469629D01*
X80558094Y-38469629D02*
X80706666Y-38618200D01*
X80706666Y-38618200D02*
X80545713Y-38618200D01*
D11*
X74074318Y-42010237D02*
X72804318Y-42010237D01*
X73953365Y-43340714D02*
X74013842Y-43280238D01*
X74013842Y-43280238D02*
X74074318Y-43098809D01*
X74074318Y-43098809D02*
X74074318Y-42977857D01*
X74074318Y-42977857D02*
X74013842Y-42796428D01*
X74013842Y-42796428D02*
X73892889Y-42675476D01*
X73892889Y-42675476D02*
X73771937Y-42614999D01*
X73771937Y-42614999D02*
X73530032Y-42554523D01*
X73530032Y-42554523D02*
X73348603Y-42554523D01*
X73348603Y-42554523D02*
X73106699Y-42614999D01*
X73106699Y-42614999D02*
X72985746Y-42675476D01*
X72985746Y-42675476D02*
X72864794Y-42796428D01*
X72864794Y-42796428D02*
X72804318Y-42977857D01*
X72804318Y-42977857D02*
X72804318Y-43098809D01*
X72804318Y-43098809D02*
X72864794Y-43280238D01*
X72864794Y-43280238D02*
X72925270Y-43340714D01*
X74074318Y-44550238D02*
X74074318Y-43824523D01*
X74074318Y-44187380D02*
X72804318Y-44187380D01*
X72804318Y-44187380D02*
X72985746Y-44066428D01*
X72985746Y-44066428D02*
X73106699Y-43945476D01*
X73106699Y-43945476D02*
X73167175Y-43824523D01*
D10*
X80793332Y-37618200D02*
X80879999Y-37494391D01*
X80941904Y-37618200D02*
X80941904Y-37358200D01*
X80941904Y-37358200D02*
X80842856Y-37358200D01*
X80842856Y-37358200D02*
X80818094Y-37370581D01*
X80818094Y-37370581D02*
X80805713Y-37382962D01*
X80805713Y-37382962D02*
X80793332Y-37407724D01*
X80793332Y-37407724D02*
X80793332Y-37444867D01*
X80793332Y-37444867D02*
X80805713Y-37469629D01*
X80805713Y-37469629D02*
X80818094Y-37482010D01*
X80818094Y-37482010D02*
X80842856Y-37494391D01*
X80842856Y-37494391D02*
X80941904Y-37494391D01*
X80545713Y-37618200D02*
X80694285Y-37618200D01*
X80619999Y-37618200D02*
X80619999Y-37358200D01*
X80619999Y-37358200D02*
X80644761Y-37395343D01*
X80644761Y-37395343D02*
X80669523Y-37420105D01*
X80669523Y-37420105D02*
X80694285Y-37432486D01*
D12*
X64600201Y-33628796D02*
X65105277Y-34133872D01*
X65105277Y-34133872D02*
X65239964Y-34201216D01*
X65239964Y-34201216D02*
X65374651Y-34201216D01*
X65374651Y-34201216D02*
X65509338Y-34133872D01*
X65509338Y-34133872D02*
X65576682Y-34066529D01*
X64600201Y-35043010D02*
X65004262Y-34638949D01*
X64802231Y-34840979D02*
X64095124Y-34133872D01*
X64095124Y-34133872D02*
X64263483Y-34167544D01*
X64263483Y-34167544D02*
X64398170Y-34167544D01*
X64398170Y-34167544D02*
X64499185Y-34133872D01*
D10*
X75293332Y-32368200D02*
X75379999Y-32244391D01*
X75441904Y-32368200D02*
X75441904Y-32108200D01*
X75441904Y-32108200D02*
X75342856Y-32108200D01*
X75342856Y-32108200D02*
X75318094Y-32120581D01*
X75318094Y-32120581D02*
X75305713Y-32132962D01*
X75305713Y-32132962D02*
X75293332Y-32157724D01*
X75293332Y-32157724D02*
X75293332Y-32194867D01*
X75293332Y-32194867D02*
X75305713Y-32219629D01*
X75305713Y-32219629D02*
X75318094Y-32232010D01*
X75318094Y-32232010D02*
X75342856Y-32244391D01*
X75342856Y-32244391D02*
X75441904Y-32244391D01*
X75206666Y-32108200D02*
X75045713Y-32108200D01*
X75045713Y-32108200D02*
X75132380Y-32207248D01*
X75132380Y-32207248D02*
X75095237Y-32207248D01*
X75095237Y-32207248D02*
X75070475Y-32219629D01*
X75070475Y-32219629D02*
X75058094Y-32232010D01*
X75058094Y-32232010D02*
X75045713Y-32256772D01*
X75045713Y-32256772D02*
X75045713Y-32318677D01*
X75045713Y-32318677D02*
X75058094Y-32343439D01*
X75058094Y-32343439D02*
X75070475Y-32355820D01*
X75070475Y-32355820D02*
X75095237Y-32368200D01*
X75095237Y-32368200D02*
X75169523Y-32368200D01*
X75169523Y-32368200D02*
X75194285Y-32355820D01*
X75194285Y-32355820D02*
X75206666Y-32343439D01*
D13*
X80115027Y-33306905D02*
X80544341Y-33736219D01*
X80544341Y-33736219D02*
X80569595Y-33811981D01*
X80569595Y-33811981D02*
X80569595Y-33862488D01*
X80569595Y-33862488D02*
X80544341Y-33938250D01*
X80544341Y-33938250D02*
X80443326Y-34039265D01*
X80443326Y-34039265D02*
X80367565Y-34064519D01*
X80367565Y-34064519D02*
X80317057Y-34064519D01*
X80317057Y-34064519D02*
X80241296Y-34039265D01*
X80241296Y-34039265D02*
X79811981Y-33609950D01*
X79811981Y-34670610D02*
X80115027Y-34367565D01*
X79963504Y-34519087D02*
X79433174Y-33988757D01*
X79433174Y-33988757D02*
X79559443Y-34014011D01*
X79559443Y-34014011D02*
X79660458Y-34014011D01*
X79660458Y-34014011D02*
X79736220Y-33988757D01*
D10*
X66465988Y-40592935D02*
X66465988Y-40609771D01*
X66465988Y-40609771D02*
X66482824Y-40643443D01*
X66482824Y-40643443D02*
X66499660Y-40660279D01*
X66499660Y-40660279D02*
X66533332Y-40677115D01*
X66533332Y-40677115D02*
X66567003Y-40677115D01*
X66567003Y-40677115D02*
X66592257Y-40668697D01*
X66592257Y-40668697D02*
X66634347Y-40643443D01*
X66634347Y-40643443D02*
X66659601Y-40618189D01*
X66659601Y-40618189D02*
X66684855Y-40576100D01*
X66684855Y-40576100D02*
X66693273Y-40550846D01*
X66693273Y-40550846D02*
X66693273Y-40517174D01*
X66693273Y-40517174D02*
X66676437Y-40483502D01*
X66676437Y-40483502D02*
X66659601Y-40466666D01*
X66659601Y-40466666D02*
X66625929Y-40449831D01*
X66625929Y-40449831D02*
X66609093Y-40449831D01*
X66541750Y-40382487D02*
X66541750Y-40365651D01*
X66541750Y-40365651D02*
X66533332Y-40340397D01*
X66533332Y-40340397D02*
X66491242Y-40298308D01*
X66491242Y-40298308D02*
X66465988Y-40289890D01*
X66465988Y-40289890D02*
X66449152Y-40289890D01*
X66449152Y-40289890D02*
X66423899Y-40298308D01*
X66423899Y-40298308D02*
X66407063Y-40315144D01*
X66407063Y-40315144D02*
X66390227Y-40348815D01*
X66390227Y-40348815D02*
X66390227Y-40550846D01*
X66390227Y-40550846D02*
X66280794Y-40441413D01*
X67715988Y-42092935D02*
X67715988Y-42109771D01*
X67715988Y-42109771D02*
X67732824Y-42143443D01*
X67732824Y-42143443D02*
X67749660Y-42160279D01*
X67749660Y-42160279D02*
X67783332Y-42177115D01*
X67783332Y-42177115D02*
X67817003Y-42177115D01*
X67817003Y-42177115D02*
X67842257Y-42168697D01*
X67842257Y-42168697D02*
X67884347Y-42143443D01*
X67884347Y-42143443D02*
X67909601Y-42118189D01*
X67909601Y-42118189D02*
X67934855Y-42076100D01*
X67934855Y-42076100D02*
X67943273Y-42050846D01*
X67943273Y-42050846D02*
X67943273Y-42017174D01*
X67943273Y-42017174D02*
X67926437Y-41983502D01*
X67926437Y-41983502D02*
X67909601Y-41966666D01*
X67909601Y-41966666D02*
X67875929Y-41949831D01*
X67875929Y-41949831D02*
X67859093Y-41949831D01*
X67724406Y-41781472D02*
X67758078Y-41815144D01*
X67758078Y-41815144D02*
X67766496Y-41840397D01*
X67766496Y-41840397D02*
X67766496Y-41857233D01*
X67766496Y-41857233D02*
X67758078Y-41899323D01*
X67758078Y-41899323D02*
X67732824Y-41941413D01*
X67732824Y-41941413D02*
X67665481Y-42008756D01*
X67665481Y-42008756D02*
X67640227Y-42017174D01*
X67640227Y-42017174D02*
X67623391Y-42017174D01*
X67623391Y-42017174D02*
X67598137Y-42008756D01*
X67598137Y-42008756D02*
X67564465Y-41975084D01*
X67564465Y-41975084D02*
X67556047Y-41949831D01*
X67556047Y-41949831D02*
X67556047Y-41932995D01*
X67556047Y-41932995D02*
X67564465Y-41907741D01*
X67564465Y-41907741D02*
X67606555Y-41865651D01*
X67606555Y-41865651D02*
X67631809Y-41857233D01*
X67631809Y-41857233D02*
X67648645Y-41857233D01*
X67648645Y-41857233D02*
X67673899Y-41865651D01*
X67673899Y-41865651D02*
X67707570Y-41899323D01*
X67707570Y-41899323D02*
X67715988Y-41924577D01*
X67715988Y-41924577D02*
X67715988Y-41941413D01*
X67715988Y-41941413D02*
X67707570Y-41966666D01*
X72543332Y-47118200D02*
X72629999Y-46994391D01*
X72691904Y-47118200D02*
X72691904Y-46858200D01*
X72691904Y-46858200D02*
X72592856Y-46858200D01*
X72592856Y-46858200D02*
X72568094Y-46870581D01*
X72568094Y-46870581D02*
X72555713Y-46882962D01*
X72555713Y-46882962D02*
X72543332Y-46907724D01*
X72543332Y-46907724D02*
X72543332Y-46944867D01*
X72543332Y-46944867D02*
X72555713Y-46969629D01*
X72555713Y-46969629D02*
X72568094Y-46982010D01*
X72568094Y-46982010D02*
X72592856Y-46994391D01*
X72592856Y-46994391D02*
X72691904Y-46994391D01*
X72308094Y-46858200D02*
X72431904Y-46858200D01*
X72431904Y-46858200D02*
X72444285Y-46982010D01*
X72444285Y-46982010D02*
X72431904Y-46969629D01*
X72431904Y-46969629D02*
X72407142Y-46957248D01*
X72407142Y-46957248D02*
X72345237Y-46957248D01*
X72345237Y-46957248D02*
X72320475Y-46969629D01*
X72320475Y-46969629D02*
X72308094Y-46982010D01*
X72308094Y-46982010D02*
X72295713Y-47006772D01*
X72295713Y-47006772D02*
X72295713Y-47068677D01*
X72295713Y-47068677D02*
X72308094Y-47093439D01*
X72308094Y-47093439D02*
X72320475Y-47105820D01*
X72320475Y-47105820D02*
X72345237Y-47118200D01*
X72345237Y-47118200D02*
X72407142Y-47118200D01*
X72407142Y-47118200D02*
X72431904Y-47105820D01*
X72431904Y-47105820D02*
X72444285Y-47093439D01*
D14*
X70643832Y-42933333D02*
X70662880Y-42914285D01*
X70662880Y-42914285D02*
X70681927Y-42857143D01*
X70681927Y-42857143D02*
X70681927Y-42819047D01*
X70681927Y-42819047D02*
X70662880Y-42761904D01*
X70662880Y-42761904D02*
X70624784Y-42723809D01*
X70624784Y-42723809D02*
X70586689Y-42704762D01*
X70586689Y-42704762D02*
X70510499Y-42685714D01*
X70510499Y-42685714D02*
X70453356Y-42685714D01*
X70453356Y-42685714D02*
X70377165Y-42704762D01*
X70377165Y-42704762D02*
X70339070Y-42723809D01*
X70339070Y-42723809D02*
X70300975Y-42761904D01*
X70300975Y-42761904D02*
X70281927Y-42819047D01*
X70281927Y-42819047D02*
X70281927Y-42857143D01*
X70281927Y-42857143D02*
X70300975Y-42914285D01*
X70300975Y-42914285D02*
X70320022Y-42933333D01*
X70281927Y-43066666D02*
X70281927Y-43314285D01*
X70281927Y-43314285D02*
X70434308Y-43180952D01*
X70434308Y-43180952D02*
X70434308Y-43238095D01*
X70434308Y-43238095D02*
X70453356Y-43276190D01*
X70453356Y-43276190D02*
X70472403Y-43295238D01*
X70472403Y-43295238D02*
X70510499Y-43314285D01*
X70510499Y-43314285D02*
X70605737Y-43314285D01*
X70605737Y-43314285D02*
X70643832Y-43295238D01*
X70643832Y-43295238D02*
X70662880Y-43276190D01*
X70662880Y-43276190D02*
X70681927Y-43238095D01*
X70681927Y-43238095D02*
X70681927Y-43123809D01*
X70681927Y-43123809D02*
X70662880Y-43085714D01*
X70662880Y-43085714D02*
X70643832Y-43066666D01*
X71643832Y-42933333D02*
X71662880Y-42914285D01*
X71662880Y-42914285D02*
X71681927Y-42857143D01*
X71681927Y-42857143D02*
X71681927Y-42819047D01*
X71681927Y-42819047D02*
X71662880Y-42761904D01*
X71662880Y-42761904D02*
X71624784Y-42723809D01*
X71624784Y-42723809D02*
X71586689Y-42704762D01*
X71586689Y-42704762D02*
X71510499Y-42685714D01*
X71510499Y-42685714D02*
X71453356Y-42685714D01*
X71453356Y-42685714D02*
X71377165Y-42704762D01*
X71377165Y-42704762D02*
X71339070Y-42723809D01*
X71339070Y-42723809D02*
X71300975Y-42761904D01*
X71300975Y-42761904D02*
X71281927Y-42819047D01*
X71281927Y-42819047D02*
X71281927Y-42857143D01*
X71281927Y-42857143D02*
X71300975Y-42914285D01*
X71300975Y-42914285D02*
X71320022Y-42933333D01*
X71681927Y-43314285D02*
X71681927Y-43085714D01*
X71681927Y-43200000D02*
X71281927Y-43200000D01*
X71281927Y-43200000D02*
X71339070Y-43161904D01*
X71339070Y-43161904D02*
X71377165Y-43123809D01*
X71377165Y-43123809D02*
X71396213Y-43085714D01*
D10*
X69589765Y-42958333D02*
X69601670Y-42946429D01*
X69601670Y-42946429D02*
X69613574Y-42910714D01*
X69613574Y-42910714D02*
X69613574Y-42886905D01*
X69613574Y-42886905D02*
X69601670Y-42851191D01*
X69601670Y-42851191D02*
X69577860Y-42827381D01*
X69577860Y-42827381D02*
X69554050Y-42815476D01*
X69554050Y-42815476D02*
X69506431Y-42803572D01*
X69506431Y-42803572D02*
X69470717Y-42803572D01*
X69470717Y-42803572D02*
X69423098Y-42815476D01*
X69423098Y-42815476D02*
X69399289Y-42827381D01*
X69399289Y-42827381D02*
X69375479Y-42851191D01*
X69375479Y-42851191D02*
X69363574Y-42886905D01*
X69363574Y-42886905D02*
X69363574Y-42910714D01*
X69363574Y-42910714D02*
X69375479Y-42946429D01*
X69375479Y-42946429D02*
X69387384Y-42958333D01*
X69363574Y-43041667D02*
X69363574Y-43208333D01*
X69363574Y-43208333D02*
X69613574Y-43101191D01*
D12*
X73761904Y-39704819D02*
X73190476Y-39704819D01*
X73476190Y-40704819D02*
X73476190Y-39704819D01*
X72857142Y-40704819D02*
X72857142Y-39704819D01*
X72857142Y-39704819D02*
X72476190Y-39704819D01*
X72476190Y-39704819D02*
X72380952Y-39752438D01*
X72380952Y-39752438D02*
X72333333Y-39800057D01*
X72333333Y-39800057D02*
X72285714Y-39895295D01*
X72285714Y-39895295D02*
X72285714Y-40038152D01*
X72285714Y-40038152D02*
X72333333Y-40133390D01*
X72333333Y-40133390D02*
X72380952Y-40181009D01*
X72380952Y-40181009D02*
X72476190Y-40228628D01*
X72476190Y-40228628D02*
X72857142Y-40228628D01*
X71952380Y-39704819D02*
X71333333Y-39704819D01*
X71333333Y-39704819D02*
X71666666Y-40085771D01*
X71666666Y-40085771D02*
X71523809Y-40085771D01*
X71523809Y-40085771D02*
X71428571Y-40133390D01*
X71428571Y-40133390D02*
X71380952Y-40181009D01*
X71380952Y-40181009D02*
X71333333Y-40276247D01*
X71333333Y-40276247D02*
X71333333Y-40514342D01*
X71333333Y-40514342D02*
X71380952Y-40609580D01*
X71380952Y-40609580D02*
X71428571Y-40657200D01*
X71428571Y-40657200D02*
X71523809Y-40704819D01*
X71523809Y-40704819D02*
X71809523Y-40704819D01*
X71809523Y-40704819D02*
X71904761Y-40657200D01*
X71904761Y-40657200D02*
X71952380Y-40609580D01*
D15*
%TO.C,R4*%
X69225000Y-31980000D02*
X70275000Y-31980000D01*
X69225000Y-32520000D02*
X69225000Y-31980000D01*
X70275000Y-31980000D02*
X70275000Y-32520000D01*
X70275000Y-32520000D02*
X69225000Y-32520000D01*
%TO.C,R2*%
X80225000Y-38230000D02*
X81275000Y-38230000D01*
X80225000Y-38770000D02*
X80225000Y-38230000D01*
X81275000Y-38230000D02*
X81275000Y-38770000D01*
X81275000Y-38770000D02*
X80225000Y-38770000D01*
%TO.C,IC1*%
X72700000Y-42450000D02*
X74300000Y-42450000D01*
X72700000Y-42950000D02*
X73200000Y-42450000D01*
X72700000Y-44050000D02*
X72700000Y-42450000D01*
X74300000Y-42450000D02*
X74300000Y-44050000D01*
X74300000Y-44050000D02*
X72700000Y-44050000D01*
%TO.C,R1*%
X80225000Y-37230000D02*
X81275000Y-37230000D01*
X80225000Y-37770000D02*
X80225000Y-37230000D01*
X81275000Y-37230000D02*
X81275000Y-37770000D01*
X81275000Y-37770000D02*
X80225000Y-37770000D01*
%TO.C,R3*%
X74725000Y-31980000D02*
X75775000Y-31980000D01*
X74725000Y-32520000D02*
X74725000Y-31980000D01*
X75775000Y-31980000D02*
X75775000Y-32520000D01*
X75775000Y-32520000D02*
X74725000Y-32520000D01*
%TO.C,U1*%
X77878680Y-34000000D02*
X79469670Y-32409010D01*
X79469670Y-32409010D02*
X80530330Y-32409010D01*
X80000000Y-36121320D02*
X77878680Y-34000000D01*
X80530330Y-32409010D02*
X82121320Y-34000000D01*
X82121320Y-34000000D02*
X80000000Y-36121320D01*
%TO.C,C2*%
X65969670Y-40323223D02*
X66323223Y-39969670D01*
X66323223Y-39969670D02*
X67030330Y-40676777D01*
X66676777Y-41030330D02*
X65969670Y-40323223D01*
X67030330Y-40676777D02*
X66676777Y-41030330D01*
%TO.C,C6*%
X67219670Y-41823223D02*
X67573223Y-41469670D01*
X67573223Y-41469670D02*
X68280330Y-42176777D01*
X67926777Y-42530330D02*
X67219670Y-41823223D01*
X68280330Y-42176777D02*
X67926777Y-42530330D01*
%TO.C,R5*%
X71975000Y-46730000D02*
X73025000Y-46730000D01*
X71975000Y-47270000D02*
X71975000Y-46730000D01*
X73025000Y-46730000D02*
X73025000Y-47270000D01*
X73025000Y-47270000D02*
X71975000Y-47270000D01*
%TO.C,C3*%
X70250000Y-42500000D02*
X70750000Y-42500000D01*
X70250000Y-43500000D02*
X70250000Y-42500000D01*
X70750000Y-42500000D02*
X70750000Y-43500000D01*
X70750000Y-43500000D02*
X70250000Y-43500000D01*
%TO.C,C1*%
X71250000Y-42500000D02*
X71750000Y-42500000D01*
X71250000Y-43500000D02*
X71250000Y-42500000D01*
X71750000Y-42500000D02*
X71750000Y-43500000D01*
X71750000Y-43500000D02*
X71250000Y-43500000D01*
%TO.C,C7*%
X69250000Y-42500000D02*
X69750000Y-42500000D01*
X69250000Y-43500000D02*
X69250000Y-42500000D01*
X69750000Y-42500000D02*
X69750000Y-43500000D01*
X69750000Y-43500000D02*
X69250000Y-43500000D01*
%TD*%
M02*
