%TF.GenerationSoftware,KiCad,Pcbnew,8.0.9-8.0.9-0~ubuntu20.04.1*%
%TF.CreationDate,2025-12-29T17:13:46+00:00*%
%TF.ProjectId,nfc-pcb-tag,6e66632d-7063-4622-9d74-61672e6b6963,rev?*%
%TF.SameCoordinates,Original*%
%TF.FileFunction,AssemblyDrawing,Top*%
%FSLAX46Y46*%
G04 Gerber Fmt 4.6, Leading zero omitted, Abs format (unit mm)*
G04 Created by KiCad (PCBNEW 8.0.9-8.0.9-0~ubuntu20.04.1) date 2025-12-29 17:13:46*
%MOMM*%
%LPD*%
G01*
G04 APERTURE LIST*
%ADD10C,0.040000*%
%ADD11C,0.100000*%
G04 APERTURE END LIST*
D10*
X72315476Y-47113574D02*
X72315476Y-46863574D01*
X72315476Y-46863574D02*
X72375000Y-46863574D01*
X72375000Y-46863574D02*
X72410714Y-46875479D01*
X72410714Y-46875479D02*
X72434524Y-46899289D01*
X72434524Y-46899289D02*
X72446429Y-46923098D01*
X72446429Y-46923098D02*
X72458333Y-46970717D01*
X72458333Y-46970717D02*
X72458333Y-47006431D01*
X72458333Y-47006431D02*
X72446429Y-47054050D01*
X72446429Y-47054050D02*
X72434524Y-47077860D01*
X72434524Y-47077860D02*
X72410714Y-47101670D01*
X72410714Y-47101670D02*
X72375000Y-47113574D01*
X72375000Y-47113574D02*
X72315476Y-47113574D01*
X72696429Y-47113574D02*
X72553572Y-47113574D01*
X72625000Y-47113574D02*
X72625000Y-46863574D01*
X72625000Y-46863574D02*
X72601191Y-46899289D01*
X72601191Y-46899289D02*
X72577381Y-46923098D01*
X72577381Y-46923098D02*
X72553572Y-46935003D01*
D11*
%TO.C,D1*%
X72000000Y-46750000D02*
X73000000Y-46750000D01*
X72000000Y-47250000D02*
X72000000Y-46750000D01*
X72100000Y-47250000D02*
X72100000Y-46750000D01*
X72200000Y-47250000D02*
X72200000Y-46750000D01*
X73000000Y-46750000D02*
X73000000Y-47250000D01*
X73000000Y-47250000D02*
X72000000Y-47250000D01*
%TD*%
M02*
