%TF.GenerationSoftware,KiCad,Pcbnew,8.0.9-8.0.9-0~ubuntu20.04.1*%
%TF.CreationDate,2025-06-13T22:36:46+01:00*%
%TF.ProjectId,nfc-pcb-tag,6e66632d-7063-4622-9d74-61672e6b6963,rev?*%
%TF.SameCoordinates,Original*%
%TF.FileFunction,Copper,L2,Bot*%
%TF.FilePolarity,Positive*%
%FSLAX46Y46*%
G04 Gerber Fmt 4.6, Leading zero omitted, Abs format (unit mm)*
G04 Created by KiCad (PCBNEW 8.0.9-8.0.9-0~ubuntu20.04.1) date 2025-06-13 22:36:46*
%MOMM*%
%LPD*%
G01*
G04 APERTURE LIST*
%TA.AperFunction,Conductor*%
%ADD10C,0.550000*%
%TD*%
%TA.AperFunction,SMDPad,CuDef*%
%ADD11R,0.250000X0.400000*%
%TD*%
%TA.AperFunction,SMDPad,CuDef*%
%ADD12R,0.400000X0.250000*%
%TD*%
%TA.AperFunction,ConnectorPad*%
%ADD13C,0.787400*%
%TD*%
%TA.AperFunction,ViaPad*%
%ADD14C,0.600000*%
%TD*%
%TA.AperFunction,Conductor*%
%ADD15C,0.200000*%
%TD*%
G04 APERTURE END LIST*
D10*
%TO.N,Net-(R4-Pad1)*%
X63388279Y-40111721D02*
G75*
G02*
X70000000Y-30750000I4111721J4111721D01*
G01*
X63388279Y-40111721D02*
X71250000Y-48000000D01*
%TO.N,Net-(R3-Pad1)*%
X81611721Y-40111721D02*
X73750000Y-48000000D01*
X75000000Y-30750001D02*
G75*
G02*
X81611720Y-40111720I2500000J-5249999D01*
G01*
%TD*%
%TO.P,R4,1*%
%TO.N,Net-(R4-Pad1)*%
%TA.AperFunction,SMDPad,CuDef*%
G36*
G01*
X68970000Y-32435000D02*
X68970000Y-32065000D01*
G75*
G02*
X69105000Y-31930000I135000J0D01*
G01*
X69375000Y-31930000D01*
G75*
G02*
X69510000Y-32065000I0J-135000D01*
G01*
X69510000Y-32435000D01*
G75*
G02*
X69375000Y-32570000I-135000J0D01*
G01*
X69105000Y-32570000D01*
G75*
G02*
X68970000Y-32435000I0J135000D01*
G01*
G37*
%TD.AperFunction*%
%TO.P,R4,2*%
%TO.N,/A1*%
%TA.AperFunction,SMDPad,CuDef*%
G36*
G01*
X69990000Y-32435000D02*
X69990000Y-32065000D01*
G75*
G02*
X70125000Y-31930000I135000J0D01*
G01*
X70395000Y-31930000D01*
G75*
G02*
X70530000Y-32065000I0J-135000D01*
G01*
X70530000Y-32435000D01*
G75*
G02*
X70395000Y-32570000I-135000J0D01*
G01*
X70125000Y-32570000D01*
G75*
G02*
X69990000Y-32435000I0J135000D01*
G01*
G37*
%TD.AperFunction*%
%TD*%
%TO.P,R2,1*%
%TO.N,+3.3V*%
%TA.AperFunction,SMDPad,CuDef*%
G36*
G01*
X81530000Y-38315000D02*
X81530000Y-38685000D01*
G75*
G02*
X81395000Y-38820000I-135000J0D01*
G01*
X81125000Y-38820000D01*
G75*
G02*
X80990000Y-38685000I0J135000D01*
G01*
X80990000Y-38315000D01*
G75*
G02*
X81125000Y-38180000I135000J0D01*
G01*
X81395000Y-38180000D01*
G75*
G02*
X81530000Y-38315000I0J-135000D01*
G01*
G37*
%TD.AperFunction*%
%TO.P,R2,2*%
%TO.N,/SDA*%
%TA.AperFunction,SMDPad,CuDef*%
G36*
G01*
X80510000Y-38315000D02*
X80510000Y-38685000D01*
G75*
G02*
X80375000Y-38820000I-135000J0D01*
G01*
X80105000Y-38820000D01*
G75*
G02*
X79970000Y-38685000I0J135000D01*
G01*
X79970000Y-38315000D01*
G75*
G02*
X80105000Y-38180000I135000J0D01*
G01*
X80375000Y-38180000D01*
G75*
G02*
X80510000Y-38315000I0J-135000D01*
G01*
G37*
%TD.AperFunction*%
%TD*%
D11*
%TO.P,IC1,1,LA*%
%TO.N,Net-(IC1-LA)*%
X73000000Y-42450000D03*
%TO.P,IC1,2,VSS*%
%TO.N,GND*%
X73500000Y-42450000D03*
%TO.P,IC1,3,SCL*%
%TO.N,/SCL*%
X74000000Y-42450000D03*
D12*
%TO.P,IC1,4,FD*%
%TO.N,unconnected-(IC1-FD-Pad4)*%
X74250000Y-43250000D03*
D11*
%TO.P,IC1,5,SDA*%
%TO.N,/SDA*%
X74000000Y-44050000D03*
%TO.P,IC1,6,VCC*%
%TO.N,+3.3V*%
X73500000Y-44050000D03*
%TO.P,IC1,7,VOUT*%
X73000000Y-44050000D03*
D12*
%TO.P,IC1,8,LB*%
%TO.N,Net-(IC1-LB)*%
X72750000Y-43250000D03*
%TD*%
%TO.P,R1,1*%
%TO.N,+3.3V*%
%TA.AperFunction,SMDPad,CuDef*%
G36*
G01*
X81530000Y-37315000D02*
X81530000Y-37685000D01*
G75*
G02*
X81395000Y-37820000I-135000J0D01*
G01*
X81125000Y-37820000D01*
G75*
G02*
X80990000Y-37685000I0J135000D01*
G01*
X80990000Y-37315000D01*
G75*
G02*
X81125000Y-37180000I135000J0D01*
G01*
X81395000Y-37180000D01*
G75*
G02*
X81530000Y-37315000I0J-135000D01*
G01*
G37*
%TD.AperFunction*%
%TO.P,R1,2*%
%TO.N,/SCL*%
%TA.AperFunction,SMDPad,CuDef*%
G36*
G01*
X80510000Y-37315000D02*
X80510000Y-37685000D01*
G75*
G02*
X80375000Y-37820000I-135000J0D01*
G01*
X80105000Y-37820000D01*
G75*
G02*
X79970000Y-37685000I0J135000D01*
G01*
X79970000Y-37315000D01*
G75*
G02*
X80105000Y-37180000I135000J0D01*
G01*
X80375000Y-37180000D01*
G75*
G02*
X80510000Y-37315000I0J-135000D01*
G01*
G37*
%TD.AperFunction*%
%TD*%
D13*
%TO.P,J1,1,VCC*%
%TO.N,+3.3V*%
X63402962Y-34699013D03*
%TO.P,J1,2,SWDIO*%
%TO.N,/SWDIO*%
X64300987Y-35597038D03*
%TO.P,J1,3,~{RESET}*%
%TO.N,unconnected-(J1-~{RESET}-Pad3)*%
X64300987Y-33800987D03*
%TO.P,J1,4,SWCLK*%
%TO.N,unconnected-(J1-SWCLK-Pad4)*%
X65199013Y-34699013D03*
%TO.P,J1,5,GND*%
%TO.N,GND*%
X65199013Y-32902962D03*
%TO.P,J1,6,SWO*%
%TO.N,unconnected-(J1-SWO-Pad6)*%
X66097038Y-33800987D03*
%TD*%
%TO.P,R3,1*%
%TO.N,Net-(R3-Pad1)*%
%TA.AperFunction,SMDPad,CuDef*%
G36*
G01*
X74470000Y-32435000D02*
X74470000Y-32065000D01*
G75*
G02*
X74605000Y-31930000I135000J0D01*
G01*
X74875000Y-31930000D01*
G75*
G02*
X75010000Y-32065000I0J-135000D01*
G01*
X75010000Y-32435000D01*
G75*
G02*
X74875000Y-32570000I-135000J0D01*
G01*
X74605000Y-32570000D01*
G75*
G02*
X74470000Y-32435000I0J135000D01*
G01*
G37*
%TD.AperFunction*%
%TO.P,R3,2*%
%TO.N,/A0*%
%TA.AperFunction,SMDPad,CuDef*%
G36*
G01*
X75490000Y-32435000D02*
X75490000Y-32065000D01*
G75*
G02*
X75625000Y-31930000I135000J0D01*
G01*
X75895000Y-31930000D01*
G75*
G02*
X76030000Y-32065000I0J-135000D01*
G01*
X76030000Y-32435000D01*
G75*
G02*
X75895000Y-32570000I-135000J0D01*
G01*
X75625000Y-32570000D01*
G75*
G02*
X75490000Y-32435000I0J135000D01*
G01*
G37*
%TD.AperFunction*%
%TD*%
%TO.P,U1,1,PD7*%
%TO.N,unconnected-(U1-PD7-Pad1)*%
%TA.AperFunction,SMDPad,CuDef*%
G36*
G01*
X80724784Y-32073135D02*
X80795494Y-32143845D01*
G75*
G02*
X80795494Y-32214555I-35355J-35355D01*
G01*
X80265164Y-32744885D01*
G75*
G02*
X80194454Y-32744885I-35355J35355D01*
G01*
X80123744Y-32674175D01*
G75*
G02*
X80123744Y-32603465I35355J35355D01*
G01*
X80654074Y-32073135D01*
G75*
G02*
X80724784Y-32073135I35355J-35355D01*
G01*
G37*
%TD.AperFunction*%
%TO.P,U1,2,PA1*%
%TO.N,unconnected-(U1-PA1-Pad2)*%
%TA.AperFunction,SMDPad,CuDef*%
G36*
G01*
X81007627Y-32355977D02*
X81078337Y-32426687D01*
G75*
G02*
X81078337Y-32497397I-35355J-35355D01*
G01*
X80548007Y-33027727D01*
G75*
G02*
X80477297Y-33027727I-35355J35355D01*
G01*
X80406587Y-32957017D01*
G75*
G02*
X80406587Y-32886307I35355J35355D01*
G01*
X80936917Y-32355977D01*
G75*
G02*
X81007627Y-32355977I35355J-35355D01*
G01*
G37*
%TD.AperFunction*%
%TO.P,U1,3,PA2*%
%TO.N,unconnected-(U1-PA2-Pad3)*%
%TA.AperFunction,SMDPad,CuDef*%
G36*
G01*
X81290470Y-32638820D02*
X81361180Y-32709530D01*
G75*
G02*
X81361180Y-32780240I-35355J-35355D01*
G01*
X80830850Y-33310570D01*
G75*
G02*
X80760140Y-33310570I-35355J35355D01*
G01*
X80689430Y-33239860D01*
G75*
G02*
X80689430Y-33169150I35355J35355D01*
G01*
X81219760Y-32638820D01*
G75*
G02*
X81290470Y-32638820I35355J-35355D01*
G01*
G37*
%TD.AperFunction*%
%TO.P,U1,4,VSS*%
%TO.N,GND*%
%TA.AperFunction,SMDPad,CuDef*%
G36*
G01*
X81573313Y-32921663D02*
X81644023Y-32992373D01*
G75*
G02*
X81644023Y-33063083I-35355J-35355D01*
G01*
X81113693Y-33593413D01*
G75*
G02*
X81042983Y-33593413I-35355J35355D01*
G01*
X80972273Y-33522703D01*
G75*
G02*
X80972273Y-33451993I35355J35355D01*
G01*
X81502603Y-32921663D01*
G75*
G02*
X81573313Y-32921663I35355J-35355D01*
G01*
G37*
%TD.AperFunction*%
%TO.P,U1,5,PD0*%
%TO.N,unconnected-(U1-PD0-Pad5)*%
%TA.AperFunction,SMDPad,CuDef*%
G36*
G01*
X81856155Y-33204506D02*
X81926865Y-33275216D01*
G75*
G02*
X81926865Y-33345926I-35355J-35355D01*
G01*
X81396535Y-33876256D01*
G75*
G02*
X81325825Y-33876256I-35355J35355D01*
G01*
X81255115Y-33805546D01*
G75*
G02*
X81255115Y-33734836I35355J35355D01*
G01*
X81785445Y-33204506D01*
G75*
G02*
X81856155Y-33204506I35355J-35355D01*
G01*
G37*
%TD.AperFunction*%
%TO.P,U1,6,VDD*%
%TO.N,+3.3V*%
%TA.AperFunction,SMDPad,CuDef*%
G36*
G01*
X81396535Y-34123744D02*
X81926865Y-34654074D01*
G75*
G02*
X81926865Y-34724784I-35355J-35355D01*
G01*
X81856155Y-34795494D01*
G75*
G02*
X81785445Y-34795494I-35355J35355D01*
G01*
X81255115Y-34265164D01*
G75*
G02*
X81255115Y-34194454I35355J35355D01*
G01*
X81325825Y-34123744D01*
G75*
G02*
X81396535Y-34123744I35355J-35355D01*
G01*
G37*
%TD.AperFunction*%
%TO.P,U1,7,PC0*%
%TO.N,unconnected-(U1-PC0-Pad7)*%
%TA.AperFunction,SMDPad,CuDef*%
G36*
G01*
X81113693Y-34406587D02*
X81644023Y-34936917D01*
G75*
G02*
X81644023Y-35007627I-35355J-35355D01*
G01*
X81573313Y-35078337D01*
G75*
G02*
X81502603Y-35078337I-35355J35355D01*
G01*
X80972273Y-34548007D01*
G75*
G02*
X80972273Y-34477297I35355J35355D01*
G01*
X81042983Y-34406587D01*
G75*
G02*
X81113693Y-34406587I35355J-35355D01*
G01*
G37*
%TD.AperFunction*%
%TO.P,U1,8,PC1*%
%TO.N,/SDA*%
%TA.AperFunction,SMDPad,CuDef*%
G36*
G01*
X80830850Y-34689430D02*
X81361180Y-35219760D01*
G75*
G02*
X81361180Y-35290470I-35355J-35355D01*
G01*
X81290470Y-35361180D01*
G75*
G02*
X81219760Y-35361180I-35355J35355D01*
G01*
X80689430Y-34830850D01*
G75*
G02*
X80689430Y-34760140I35355J35355D01*
G01*
X80760140Y-34689430D01*
G75*
G02*
X80830850Y-34689430I35355J-35355D01*
G01*
G37*
%TD.AperFunction*%
%TO.P,U1,9,PC2*%
%TO.N,/SCL*%
%TA.AperFunction,SMDPad,CuDef*%
G36*
G01*
X80548007Y-34972273D02*
X81078337Y-35502603D01*
G75*
G02*
X81078337Y-35573313I-35355J-35355D01*
G01*
X81007627Y-35644023D01*
G75*
G02*
X80936917Y-35644023I-35355J35355D01*
G01*
X80406587Y-35113693D01*
G75*
G02*
X80406587Y-35042983I35355J35355D01*
G01*
X80477297Y-34972273D01*
G75*
G02*
X80548007Y-34972273I35355J-35355D01*
G01*
G37*
%TD.AperFunction*%
%TO.P,U1,10,PC3*%
%TO.N,unconnected-(U1-PC3-Pad10)*%
%TA.AperFunction,SMDPad,CuDef*%
G36*
G01*
X80265164Y-35255115D02*
X80795494Y-35785445D01*
G75*
G02*
X80795494Y-35856155I-35355J-35355D01*
G01*
X80724784Y-35926865D01*
G75*
G02*
X80654074Y-35926865I-35355J35355D01*
G01*
X80123744Y-35396535D01*
G75*
G02*
X80123744Y-35325825I35355J35355D01*
G01*
X80194454Y-35255115D01*
G75*
G02*
X80265164Y-35255115I35355J-35355D01*
G01*
G37*
%TD.AperFunction*%
%TO.P,U1,11,PC4*%
%TO.N,unconnected-(U1-PC4-Pad11)*%
%TA.AperFunction,SMDPad,CuDef*%
G36*
G01*
X79805546Y-35255115D02*
X79876256Y-35325825D01*
G75*
G02*
X79876256Y-35396535I-35355J-35355D01*
G01*
X79345926Y-35926865D01*
G75*
G02*
X79275216Y-35926865I-35355J35355D01*
G01*
X79204506Y-35856155D01*
G75*
G02*
X79204506Y-35785445I35355J35355D01*
G01*
X79734836Y-35255115D01*
G75*
G02*
X79805546Y-35255115I35355J-35355D01*
G01*
G37*
%TD.AperFunction*%
%TO.P,U1,12,PC5*%
%TO.N,GND*%
%TA.AperFunction,SMDPad,CuDef*%
G36*
G01*
X79522703Y-34972273D02*
X79593413Y-35042983D01*
G75*
G02*
X79593413Y-35113693I-35355J-35355D01*
G01*
X79063083Y-35644023D01*
G75*
G02*
X78992373Y-35644023I-35355J35355D01*
G01*
X78921663Y-35573313D01*
G75*
G02*
X78921663Y-35502603I35355J35355D01*
G01*
X79451993Y-34972273D01*
G75*
G02*
X79522703Y-34972273I35355J-35355D01*
G01*
G37*
%TD.AperFunction*%
%TO.P,U1,13,PC6*%
%TO.N,unconnected-(U1-PC6-Pad13)*%
%TA.AperFunction,SMDPad,CuDef*%
G36*
G01*
X79239860Y-34689430D02*
X79310570Y-34760140D01*
G75*
G02*
X79310570Y-34830850I-35355J-35355D01*
G01*
X78780240Y-35361180D01*
G75*
G02*
X78709530Y-35361180I-35355J35355D01*
G01*
X78638820Y-35290470D01*
G75*
G02*
X78638820Y-35219760I35355J35355D01*
G01*
X79169150Y-34689430D01*
G75*
G02*
X79239860Y-34689430I35355J-35355D01*
G01*
G37*
%TD.AperFunction*%
%TO.P,U1,14,PC7*%
%TO.N,unconnected-(U1-PC7-Pad14)*%
%TA.AperFunction,SMDPad,CuDef*%
G36*
G01*
X78957017Y-34406587D02*
X79027727Y-34477297D01*
G75*
G02*
X79027727Y-34548007I-35355J-35355D01*
G01*
X78497397Y-35078337D01*
G75*
G02*
X78426687Y-35078337I-35355J35355D01*
G01*
X78355977Y-35007627D01*
G75*
G02*
X78355977Y-34936917I35355J35355D01*
G01*
X78886307Y-34406587D01*
G75*
G02*
X78957017Y-34406587I35355J-35355D01*
G01*
G37*
%TD.AperFunction*%
%TO.P,U1,15,PD1*%
%TO.N,/SWDIO*%
%TA.AperFunction,SMDPad,CuDef*%
G36*
G01*
X78674175Y-34123744D02*
X78744885Y-34194454D01*
G75*
G02*
X78744885Y-34265164I-35355J-35355D01*
G01*
X78214555Y-34795494D01*
G75*
G02*
X78143845Y-34795494I-35355J35355D01*
G01*
X78073135Y-34724784D01*
G75*
G02*
X78073135Y-34654074I35355J35355D01*
G01*
X78603465Y-34123744D01*
G75*
G02*
X78674175Y-34123744I35355J-35355D01*
G01*
G37*
%TD.AperFunction*%
%TO.P,U1,16,PD2*%
%TO.N,unconnected-(U1-PD2-Pad16)*%
%TA.AperFunction,SMDPad,CuDef*%
G36*
G01*
X78214555Y-33204506D02*
X78744885Y-33734836D01*
G75*
G02*
X78744885Y-33805546I-35355J-35355D01*
G01*
X78674175Y-33876256D01*
G75*
G02*
X78603465Y-33876256I-35355J35355D01*
G01*
X78073135Y-33345926D01*
G75*
G02*
X78073135Y-33275216I35355J35355D01*
G01*
X78143845Y-33204506D01*
G75*
G02*
X78214555Y-33204506I35355J-35355D01*
G01*
G37*
%TD.AperFunction*%
%TO.P,U1,17,PD3*%
%TO.N,/LED0*%
%TA.AperFunction,SMDPad,CuDef*%
G36*
G01*
X78497397Y-32921663D02*
X79027727Y-33451993D01*
G75*
G02*
X79027727Y-33522703I-35355J-35355D01*
G01*
X78957017Y-33593413D01*
G75*
G02*
X78886307Y-33593413I-35355J35355D01*
G01*
X78355977Y-33063083D01*
G75*
G02*
X78355977Y-32992373I35355J35355D01*
G01*
X78426687Y-32921663D01*
G75*
G02*
X78497397Y-32921663I35355J-35355D01*
G01*
G37*
%TD.AperFunction*%
%TO.P,U1,18,PD4*%
%TO.N,/LED1*%
%TA.AperFunction,SMDPad,CuDef*%
G36*
G01*
X78780240Y-32638820D02*
X79310570Y-33169150D01*
G75*
G02*
X79310570Y-33239860I-35355J-35355D01*
G01*
X79239860Y-33310570D01*
G75*
G02*
X79169150Y-33310570I-35355J35355D01*
G01*
X78638820Y-32780240D01*
G75*
G02*
X78638820Y-32709530I35355J35355D01*
G01*
X78709530Y-32638820D01*
G75*
G02*
X78780240Y-32638820I35355J-35355D01*
G01*
G37*
%TD.AperFunction*%
%TO.P,U1,19,PD5*%
%TO.N,/A1*%
%TA.AperFunction,SMDPad,CuDef*%
G36*
G01*
X79063083Y-32355977D02*
X79593413Y-32886307D01*
G75*
G02*
X79593413Y-32957017I-35355J-35355D01*
G01*
X79522703Y-33027727D01*
G75*
G02*
X79451993Y-33027727I-35355J35355D01*
G01*
X78921663Y-32497397D01*
G75*
G02*
X78921663Y-32426687I35355J35355D01*
G01*
X78992373Y-32355977D01*
G75*
G02*
X79063083Y-32355977I35355J-35355D01*
G01*
G37*
%TD.AperFunction*%
%TO.P,U1,20,PD6*%
%TO.N,/A0*%
%TA.AperFunction,SMDPad,CuDef*%
G36*
G01*
X79345926Y-32073135D02*
X79876256Y-32603465D01*
G75*
G02*
X79876256Y-32674175I-35355J-35355D01*
G01*
X79805546Y-32744885D01*
G75*
G02*
X79734836Y-32744885I-35355J35355D01*
G01*
X79204506Y-32214555D01*
G75*
G02*
X79204506Y-32143845I35355J35355D01*
G01*
X79275216Y-32073135D01*
G75*
G02*
X79345926Y-32073135I35355J-35355D01*
G01*
G37*
%TD.AperFunction*%
%TA.AperFunction,HeatsinkPad*%
%TO.P,U1,21,VSS*%
%TO.N,GND*%
G36*
X80000000Y-32833274D02*
G01*
X81166726Y-34000000D01*
X80000000Y-35166726D01*
X78833274Y-34000000D01*
X80000000Y-32833274D01*
G37*
%TD.AperFunction*%
%TD*%
%TO.P,C2,1*%
%TO.N,+3.3V*%
%TA.AperFunction,SMDPad,CuDef*%
G36*
G01*
X67157609Y-40917193D02*
X66917193Y-41157609D01*
G75*
G02*
X66719203Y-41157609I-98995J98995D01*
G01*
X66521213Y-40959619D01*
G75*
G02*
X66521213Y-40761629I98995J98995D01*
G01*
X66761629Y-40521213D01*
G75*
G02*
X66959619Y-40521213I98995J-98995D01*
G01*
X67157609Y-40719203D01*
G75*
G02*
X67157609Y-40917193I-98995J-98995D01*
G01*
G37*
%TD.AperFunction*%
%TO.P,C2,2*%
%TO.N,GND*%
%TA.AperFunction,SMDPad,CuDef*%
G36*
G01*
X66478787Y-40238371D02*
X66238371Y-40478787D01*
G75*
G02*
X66040381Y-40478787I-98995J98995D01*
G01*
X65842391Y-40280797D01*
G75*
G02*
X65842391Y-40082807I98995J98995D01*
G01*
X66082807Y-39842391D01*
G75*
G02*
X66280797Y-39842391I98995J-98995D01*
G01*
X66478787Y-40040381D01*
G75*
G02*
X66478787Y-40238371I-98995J-98995D01*
G01*
G37*
%TD.AperFunction*%
%TD*%
%TO.P,C6,1*%
%TO.N,+3.3V*%
%TA.AperFunction,SMDPad,CuDef*%
G36*
G01*
X68407609Y-42417193D02*
X68167193Y-42657609D01*
G75*
G02*
X67969203Y-42657609I-98995J98995D01*
G01*
X67771213Y-42459619D01*
G75*
G02*
X67771213Y-42261629I98995J98995D01*
G01*
X68011629Y-42021213D01*
G75*
G02*
X68209619Y-42021213I98995J-98995D01*
G01*
X68407609Y-42219203D01*
G75*
G02*
X68407609Y-42417193I-98995J-98995D01*
G01*
G37*
%TD.AperFunction*%
%TO.P,C6,2*%
%TO.N,GND*%
%TA.AperFunction,SMDPad,CuDef*%
G36*
G01*
X67728787Y-41738371D02*
X67488371Y-41978787D01*
G75*
G02*
X67290381Y-41978787I-98995J98995D01*
G01*
X67092391Y-41780797D01*
G75*
G02*
X67092391Y-41582807I98995J98995D01*
G01*
X67332807Y-41342391D01*
G75*
G02*
X67530797Y-41342391I98995J-98995D01*
G01*
X67728787Y-41540381D01*
G75*
G02*
X67728787Y-41738371I-98995J-98995D01*
G01*
G37*
%TD.AperFunction*%
%TD*%
%TO.P,R5,1*%
%TO.N,/LED0*%
%TA.AperFunction,SMDPad,CuDef*%
G36*
G01*
X73280000Y-46815000D02*
X73280000Y-47185000D01*
G75*
G02*
X73145000Y-47320000I-135000J0D01*
G01*
X72875000Y-47320000D01*
G75*
G02*
X72740000Y-47185000I0J135000D01*
G01*
X72740000Y-46815000D01*
G75*
G02*
X72875000Y-46680000I135000J0D01*
G01*
X73145000Y-46680000D01*
G75*
G02*
X73280000Y-46815000I0J-135000D01*
G01*
G37*
%TD.AperFunction*%
%TO.P,R5,2*%
%TO.N,Net-(D1-A)*%
%TA.AperFunction,SMDPad,CuDef*%
G36*
G01*
X72260000Y-46815000D02*
X72260000Y-47185000D01*
G75*
G02*
X72125000Y-47320000I-135000J0D01*
G01*
X71855000Y-47320000D01*
G75*
G02*
X71720000Y-47185000I0J135000D01*
G01*
X71720000Y-46815000D01*
G75*
G02*
X71855000Y-46680000I135000J0D01*
G01*
X72125000Y-46680000D01*
G75*
G02*
X72260000Y-46815000I0J-135000D01*
G01*
G37*
%TD.AperFunction*%
%TD*%
%TO.P,C3,1*%
%TO.N,Net-(C3-Pad1)*%
%TA.AperFunction,SMDPad,CuDef*%
G36*
G01*
X70330000Y-42240000D02*
X70670000Y-42240000D01*
G75*
G02*
X70810000Y-42380000I0J-140000D01*
G01*
X70810000Y-42660000D01*
G75*
G02*
X70670000Y-42800000I-140000J0D01*
G01*
X70330000Y-42800000D01*
G75*
G02*
X70190000Y-42660000I0J140000D01*
G01*
X70190000Y-42380000D01*
G75*
G02*
X70330000Y-42240000I140000J0D01*
G01*
G37*
%TD.AperFunction*%
%TO.P,C3,2*%
%TO.N,Net-(IC1-LB)*%
%TA.AperFunction,SMDPad,CuDef*%
G36*
G01*
X70330000Y-43200000D02*
X70670000Y-43200000D01*
G75*
G02*
X70810000Y-43340000I0J-140000D01*
G01*
X70810000Y-43620000D01*
G75*
G02*
X70670000Y-43760000I-140000J0D01*
G01*
X70330000Y-43760000D01*
G75*
G02*
X70190000Y-43620000I0J140000D01*
G01*
X70190000Y-43340000D01*
G75*
G02*
X70330000Y-43200000I140000J0D01*
G01*
G37*
%TD.AperFunction*%
%TD*%
%TO.P,C1,1*%
%TO.N,Net-(IC1-LB)*%
%TA.AperFunction,SMDPad,CuDef*%
G36*
G01*
X71670000Y-43760000D02*
X71330000Y-43760000D01*
G75*
G02*
X71190000Y-43620000I0J140000D01*
G01*
X71190000Y-43340000D01*
G75*
G02*
X71330000Y-43200000I140000J0D01*
G01*
X71670000Y-43200000D01*
G75*
G02*
X71810000Y-43340000I0J-140000D01*
G01*
X71810000Y-43620000D01*
G75*
G02*
X71670000Y-43760000I-140000J0D01*
G01*
G37*
%TD.AperFunction*%
%TO.P,C1,2*%
%TO.N,Net-(IC1-LA)*%
%TA.AperFunction,SMDPad,CuDef*%
G36*
G01*
X71670000Y-42800000D02*
X71330000Y-42800000D01*
G75*
G02*
X71190000Y-42660000I0J140000D01*
G01*
X71190000Y-42380000D01*
G75*
G02*
X71330000Y-42240000I140000J0D01*
G01*
X71670000Y-42240000D01*
G75*
G02*
X71810000Y-42380000I0J-140000D01*
G01*
X71810000Y-42660000D01*
G75*
G02*
X71670000Y-42800000I-140000J0D01*
G01*
G37*
%TD.AperFunction*%
%TD*%
%TO.P,C7,1*%
%TO.N,+3.3V*%
%TA.AperFunction,SMDPad,CuDef*%
G36*
G01*
X69670000Y-43760000D02*
X69330000Y-43760000D01*
G75*
G02*
X69190000Y-43620000I0J140000D01*
G01*
X69190000Y-43340000D01*
G75*
G02*
X69330000Y-43200000I140000J0D01*
G01*
X69670000Y-43200000D01*
G75*
G02*
X69810000Y-43340000I0J-140000D01*
G01*
X69810000Y-43620000D01*
G75*
G02*
X69670000Y-43760000I-140000J0D01*
G01*
G37*
%TD.AperFunction*%
%TO.P,C7,2*%
%TO.N,GND*%
%TA.AperFunction,SMDPad,CuDef*%
G36*
G01*
X69670000Y-42800000D02*
X69330000Y-42800000D01*
G75*
G02*
X69190000Y-42660000I0J140000D01*
G01*
X69190000Y-42380000D01*
G75*
G02*
X69330000Y-42240000I140000J0D01*
G01*
X69670000Y-42240000D01*
G75*
G02*
X69810000Y-42380000I0J-140000D01*
G01*
X69810000Y-42660000D01*
G75*
G02*
X69670000Y-42800000I-140000J0D01*
G01*
G37*
%TD.AperFunction*%
%TD*%
%TO.P,TP3,1,1*%
%TO.N,Net-(C3-Pad1)*%
%TA.AperFunction,SMDPad,CuDef*%
G36*
G01*
X71650000Y-34675000D02*
X71650000Y-40825000D01*
G75*
G02*
X70825000Y-41650000I-825000J0D01*
G01*
X69175000Y-41650000D01*
G75*
G02*
X68350000Y-40825000I0J825000D01*
G01*
X68350000Y-34675000D01*
G75*
G02*
X69175000Y-33850000I825000J0D01*
G01*
X70825000Y-33850000D01*
G75*
G02*
X71650000Y-34675000I0J-825000D01*
G01*
G37*
%TD.AperFunction*%
%TO.P,TP3,2,2*%
%TO.N,Net-(IC1-LA)*%
%TA.AperFunction,SMDPad,CuDef*%
G36*
G01*
X76650000Y-34675000D02*
X76650000Y-40825000D01*
G75*
G02*
X75825000Y-41650000I-825000J0D01*
G01*
X74175000Y-41650000D01*
G75*
G02*
X73350000Y-40825000I0J825000D01*
G01*
X73350000Y-34675000D01*
G75*
G02*
X74175000Y-33850000I825000J0D01*
G01*
X75825000Y-33850000D01*
G75*
G02*
X76650000Y-34675000I0J-825000D01*
G01*
G37*
%TD.AperFunction*%
%TD*%
D14*
%TO.N,GND*%
X64250000Y-32500000D03*
X68864265Y-42765735D03*
X73500000Y-43250000D03*
X80250000Y-34000000D03*
%TO.N,+3.3V*%
X63409090Y-33744213D03*
X63933257Y-36411578D03*
%TO.N,Net-(D1-A)*%
X72500000Y-47750000D03*
%TO.N,/SDA*%
X81761119Y-36587409D03*
X79625347Y-38104555D03*
%TO.N,/LED0*%
X77750000Y-32500000D03*
X79500000Y-40000000D03*
%TD*%
D15*
%TO.N,Net-(IC1-LA)*%
X71500000Y-42520000D02*
X72930000Y-42520000D01*
X73000000Y-42450000D02*
X73000000Y-42025000D01*
X72930000Y-42520000D02*
X73000000Y-42450000D01*
X75000000Y-40025000D02*
X75000000Y-37750000D01*
X73000000Y-42025000D02*
X75000000Y-40025000D01*
%TO.N,GND*%
X79138881Y-35426805D02*
X80250000Y-34315686D01*
X67501358Y-40638688D02*
X67023259Y-40160589D01*
X67410589Y-41589411D02*
X67501358Y-41498642D01*
X68864265Y-42251595D02*
X68273259Y-41660589D01*
X67501358Y-41498642D02*
X67501358Y-40638688D01*
X65199013Y-32902962D02*
X64652962Y-32902962D01*
X67023259Y-40160589D02*
X66160589Y-40160589D01*
X67410589Y-41660589D02*
X67410589Y-41589411D01*
X68864265Y-42765735D02*
X69254265Y-42765735D01*
X68864265Y-42765735D02*
X68864265Y-42251595D01*
X80250000Y-34315686D02*
X80250000Y-34000000D01*
X64652962Y-32902962D02*
X64250000Y-32500000D01*
X73500000Y-42450000D02*
X73500000Y-43250000D01*
X69254265Y-42765735D02*
X69500000Y-42520000D01*
X80565686Y-34000000D02*
X80250000Y-34000000D01*
X81308148Y-33257538D02*
X80565686Y-34000000D01*
X68273259Y-41660589D02*
X67410589Y-41660589D01*
%TO.N,+3.3V*%
X67226741Y-42339411D02*
X68089411Y-42339411D01*
X81260000Y-38500000D02*
X81260000Y-37500000D01*
X73575000Y-44550000D02*
X73500000Y-44475000D01*
X65976741Y-40839411D02*
X65250000Y-40112670D01*
X66839411Y-40839411D02*
X65976741Y-40839411D01*
X65250000Y-40112670D02*
X65250000Y-37250000D01*
X81260000Y-38500000D02*
X80640000Y-39120000D01*
X82361119Y-35229748D02*
X81590990Y-34459619D01*
X79531471Y-39120000D02*
X78900000Y-39751471D01*
X68730000Y-43480000D02*
X69500000Y-43480000D01*
X64411578Y-36411578D02*
X65250000Y-37250000D01*
X82361119Y-36835938D02*
X82361119Y-35229748D01*
X63402962Y-34699013D02*
X63402962Y-33750341D01*
X73500000Y-44475000D02*
X73500000Y-44050000D01*
X68089411Y-42339411D02*
X68089411Y-42839411D01*
X73510000Y-44060000D02*
X70080000Y-44060000D01*
X80640000Y-39120000D02*
X79531471Y-39120000D01*
X81572591Y-37187409D02*
X82009648Y-37187409D01*
X70080000Y-44060000D02*
X69500000Y-43480000D01*
X63402962Y-33750341D02*
X63409090Y-33744213D01*
X66620208Y-41732878D02*
X67226741Y-42339411D01*
X74894314Y-44550000D02*
X73575000Y-44550000D01*
X78900000Y-40544314D02*
X74894314Y-44550000D01*
X63933257Y-36411578D02*
X64411578Y-36411578D01*
X68089411Y-42839411D02*
X68730000Y-43480000D01*
X81260000Y-37500000D02*
X81572591Y-37187409D01*
X82009648Y-37187409D02*
X82361119Y-36835938D01*
X78900000Y-39751471D02*
X78900000Y-40544314D01*
X66839411Y-40839411D02*
X66620208Y-41058614D01*
X66620208Y-41058614D02*
X66620208Y-41732878D01*
%TO.N,Net-(D1-A)*%
X72500000Y-47510000D02*
X71990000Y-47000000D01*
X72500000Y-47750000D02*
X72500000Y-47510000D01*
%TO.N,/SCL*%
X80240000Y-37260000D02*
X81111119Y-36388881D01*
X78100000Y-40147870D02*
X78100000Y-38781372D01*
X74000000Y-42450000D02*
X75797870Y-42450000D01*
X79381372Y-37500000D02*
X80240000Y-37500000D01*
X81111119Y-35676805D02*
X80742462Y-35308148D01*
X81111119Y-36388881D02*
X81111119Y-35676805D01*
X75797870Y-42450000D02*
X78100000Y-40147870D01*
X80240000Y-37500000D02*
X80240000Y-37260000D01*
X78100000Y-38781372D02*
X79381372Y-37500000D01*
%TO.N,/SDA*%
X81761119Y-36587409D02*
X81761119Y-35761119D01*
X74828628Y-44050000D02*
X74000000Y-44050000D01*
X79342503Y-38104555D02*
X78500000Y-38947058D01*
X79625347Y-38104555D02*
X79844555Y-38104555D01*
X78500000Y-40378628D02*
X74828628Y-44050000D01*
X78500000Y-38947058D02*
X78500000Y-40378628D01*
X79625347Y-38104555D02*
X79342503Y-38104555D01*
X79844555Y-38104555D02*
X80240000Y-38500000D01*
X81761119Y-35761119D02*
X81025305Y-35025305D01*
%TO.N,/SWDIO*%
X77449391Y-33500000D02*
X68132276Y-33500000D01*
X66035238Y-35597038D02*
X64300987Y-35597038D01*
X68132276Y-33500000D02*
X66035238Y-35597038D01*
X78409010Y-34459619D02*
X77449391Y-33500000D01*
%TO.N,/A0*%
X78631371Y-31500000D02*
X76510000Y-31500000D01*
X76510000Y-31500000D02*
X75760000Y-32250000D01*
X79540381Y-32409010D02*
X78631371Y-31500000D01*
%TO.N,Net-(R3-Pad1)*%
X81723442Y-40000000D02*
X81861721Y-39861721D01*
X74740000Y-32250000D02*
X74740000Y-31010001D01*
X74740000Y-31010001D02*
X75000000Y-30750001D01*
%TO.N,Net-(R4-Pad1)*%
X69240000Y-31510001D02*
X70000000Y-30750001D01*
X69240000Y-32250000D02*
X69240000Y-31510001D01*
X63500000Y-40000000D02*
X63388279Y-40111721D01*
%TO.N,/A1*%
X76301471Y-33100000D02*
X77501471Y-31900000D01*
X77501471Y-31900000D02*
X78465686Y-31900000D01*
X70260000Y-32250000D02*
X70260000Y-32415000D01*
X70945000Y-33100000D02*
X76301471Y-33100000D01*
X78465686Y-31900000D02*
X79257538Y-32691852D01*
X70260000Y-32415000D02*
X70945000Y-33100000D01*
%TO.N,/LED0*%
X78691852Y-33257538D02*
X78184314Y-32750000D01*
X78000000Y-32750000D02*
X77750000Y-32500000D01*
X79500000Y-40000000D02*
X79500000Y-40510000D01*
X78184314Y-32750000D02*
X78000000Y-32750000D01*
X79500000Y-40510000D02*
X73010000Y-47000000D01*
%TO.N,Net-(IC1-LB)*%
X72520000Y-43480000D02*
X72750000Y-43250000D01*
X71500000Y-43480000D02*
X72520000Y-43480000D01*
X70500000Y-43480000D02*
X71500000Y-43480000D01*
%TO.N,Net-(C3-Pad1)*%
X70500000Y-38250000D02*
X70000000Y-37750000D01*
X70500000Y-42520000D02*
X70500000Y-38250000D01*
X71700000Y-39500000D02*
X71700000Y-40000000D01*
%TD*%
M02*
